<mxfile host="app.diagrams.net" modified="2023-09-22T13:01:41.727Z" agent="Mozilla/5.0 (Macintosh; Intel Mac OS X 10_15_7) AppleWebKit/537.36 (KHTML, like Gecko) Chrome/116.0.0.0 Safari/537.36" etag="jZmSkIVFlTruaz08kV02" version="21.7.5" type="device" pages="3">
  <diagram name="Use Case" id="Ei8x0hJck2W2uHbHtMmP">
    <mxGraphModel dx="1134" dy="694" grid="1" gridSize="10" guides="1" tooltips="1" connect="1" arrows="1" fold="1" page="1" pageScale="1" pageWidth="827" pageHeight="1169" math="0" shadow="0">
      <root>
        <mxCell id="0" />
        <mxCell id="1" parent="0" />
        <mxCell id="usreAglJZeL_KOMQdyrC-1" value="" style="rounded=0;whiteSpace=wrap;html=1;" vertex="1" parent="1">
          <mxGeometry x="219" y="50" width="390" height="390" as="geometry" />
        </mxCell>
        <mxCell id="usreAglJZeL_KOMQdyrC-2" value="Admin" style="shape=umlActor;verticalLabelPosition=bottom;verticalAlign=top;html=1;outlineConnect=0;" vertex="1" parent="1">
          <mxGeometry x="710" y="140" width="30" height="60" as="geometry" />
        </mxCell>
        <mxCell id="usreAglJZeL_KOMQdyrC-3" value="Pengguna" style="shape=umlActor;verticalLabelPosition=bottom;verticalAlign=top;html=1;outlineConnect=0;" vertex="1" parent="1">
          <mxGeometry x="110" y="140" width="30" height="60" as="geometry" />
        </mxCell>
        <mxCell id="usreAglJZeL_KOMQdyrC-5" value="register" style="ellipse;whiteSpace=wrap;html=1;" vertex="1" parent="1">
          <mxGeometry x="245" y="140" width="60" height="40" as="geometry" />
        </mxCell>
        <mxCell id="usreAglJZeL_KOMQdyrC-6" value="login" style="ellipse;whiteSpace=wrap;html=1;" vertex="1" parent="1">
          <mxGeometry x="240" y="190" width="70" height="40" as="geometry" />
        </mxCell>
        <mxCell id="usreAglJZeL_KOMQdyrC-7" value="" style="endArrow=none;html=1;rounded=0;entryX=0;entryY=0.5;entryDx=0;entryDy=0;exitX=1;exitY=0.3333333333333333;exitDx=0;exitDy=0;exitPerimeter=0;" edge="1" parent="1" source="usreAglJZeL_KOMQdyrC-3" target="usreAglJZeL_KOMQdyrC-5">
          <mxGeometry width="50" height="50" relative="1" as="geometry">
            <mxPoint x="100" y="280" as="sourcePoint" />
            <mxPoint x="150" y="230" as="targetPoint" />
          </mxGeometry>
        </mxCell>
        <mxCell id="usreAglJZeL_KOMQdyrC-8" value="" style="endArrow=none;html=1;rounded=0;entryX=0;entryY=0.5;entryDx=0;entryDy=0;exitX=1;exitY=0.3333333333333333;exitDx=0;exitDy=0;exitPerimeter=0;" edge="1" parent="1" source="usreAglJZeL_KOMQdyrC-3" target="usreAglJZeL_KOMQdyrC-6">
          <mxGeometry width="50" height="50" relative="1" as="geometry">
            <mxPoint x="120" y="300" as="sourcePoint" />
            <mxPoint x="170" y="250" as="targetPoint" />
          </mxGeometry>
        </mxCell>
        <mxCell id="usreAglJZeL_KOMQdyrC-10" value="login" style="ellipse;whiteSpace=wrap;html=1;" vertex="1" parent="1">
          <mxGeometry x="520" y="140" width="70" height="40" as="geometry" />
        </mxCell>
        <mxCell id="usreAglJZeL_KOMQdyrC-11" value="" style="endArrow=none;html=1;rounded=0;entryX=1;entryY=0.5;entryDx=0;entryDy=0;exitX=0;exitY=0.3333333333333333;exitDx=0;exitDy=0;exitPerimeter=0;" edge="1" parent="1" source="usreAglJZeL_KOMQdyrC-2" target="usreAglJZeL_KOMQdyrC-10">
          <mxGeometry width="50" height="50" relative="1" as="geometry">
            <mxPoint x="640" y="230" as="sourcePoint" />
            <mxPoint x="690" y="180" as="targetPoint" />
          </mxGeometry>
        </mxCell>
        <mxCell id="usreAglJZeL_KOMQdyrC-14" value="Mengelola Order" style="ellipse;whiteSpace=wrap;html=1;" vertex="1" parent="1">
          <mxGeometry x="370" y="80" width="70" height="40" as="geometry" />
        </mxCell>
        <mxCell id="usreAglJZeL_KOMQdyrC-15" value="" style="endArrow=none;html=1;rounded=0;exitX=1;exitY=0.3333333333333333;exitDx=0;exitDy=0;exitPerimeter=0;entryX=0;entryY=0.5;entryDx=0;entryDy=0;" edge="1" parent="1" source="usreAglJZeL_KOMQdyrC-3" target="usreAglJZeL_KOMQdyrC-14">
          <mxGeometry width="50" height="50" relative="1" as="geometry">
            <mxPoint x="120" y="90" as="sourcePoint" />
            <mxPoint x="180" y="70" as="targetPoint" />
          </mxGeometry>
        </mxCell>
        <mxCell id="usreAglJZeL_KOMQdyrC-18" value="Mengelola Product" style="ellipse;whiteSpace=wrap;html=1;" vertex="1" parent="1">
          <mxGeometry x="370" y="200" width="70" height="40" as="geometry" />
        </mxCell>
        <mxCell id="usreAglJZeL_KOMQdyrC-19" value="" style="endArrow=none;html=1;rounded=0;entryX=0;entryY=0.3333333333333333;entryDx=0;entryDy=0;entryPerimeter=0;exitX=1;exitY=0.5;exitDx=0;exitDy=0;" edge="1" parent="1" source="usreAglJZeL_KOMQdyrC-18" target="usreAglJZeL_KOMQdyrC-2">
          <mxGeometry width="50" height="50" relative="1" as="geometry">
            <mxPoint x="690" y="360" as="sourcePoint" />
            <mxPoint x="740" y="310" as="targetPoint" />
          </mxGeometry>
        </mxCell>
      </root>
    </mxGraphModel>
  </diagram>
  <diagram id="rFACli7W5S1hbAclDC4D" name="ERD">
    <mxGraphModel dx="1444" dy="884" grid="1" gridSize="10" guides="1" tooltips="1" connect="1" arrows="1" fold="1" page="1" pageScale="1" pageWidth="827" pageHeight="1169" math="0" shadow="0">
      <root>
        <mxCell id="0" />
        <mxCell id="1" parent="0" />
        <mxCell id="x5nza6nhUYz3lQZqO12N-1" value="orders" style="rounded=1;whiteSpace=wrap;html=1;" vertex="1" parent="1">
          <mxGeometry x="160" y="160" width="100" height="50" as="geometry" />
        </mxCell>
        <mxCell id="9YNgSpSGx8CFK1LlIQPn-1" value="id" style="ellipse;whiteSpace=wrap;html=1;" vertex="1" parent="1">
          <mxGeometry x="140" y="10" width="70" height="50" as="geometry" />
        </mxCell>
        <mxCell id="9YNgSpSGx8CFK1LlIQPn-2" value="product_id" style="ellipse;whiteSpace=wrap;html=1;" vertex="1" parent="1">
          <mxGeometry x="220" y="10" width="70" height="50" as="geometry" />
        </mxCell>
        <mxCell id="9YNgSpSGx8CFK1LlIQPn-3" value="type_id" style="ellipse;whiteSpace=wrap;html=1;" vertex="1" parent="1">
          <mxGeometry x="300" y="10" width="70" height="50" as="geometry" />
        </mxCell>
        <mxCell id="9YNgSpSGx8CFK1LlIQPn-5" value="qty" style="ellipse;whiteSpace=wrap;html=1;" vertex="1" parent="1">
          <mxGeometry x="310" y="80" width="70" height="50" as="geometry" />
        </mxCell>
        <mxCell id="9YNgSpSGx8CFK1LlIQPn-6" value="price" style="ellipse;whiteSpace=wrap;html=1;" vertex="1" parent="1">
          <mxGeometry x="300" y="130" width="70" height="50" as="geometry" />
        </mxCell>
        <mxCell id="9YNgSpSGx8CFK1LlIQPn-7" value="transaction_id" style="ellipse;whiteSpace=wrap;html=1;" vertex="1" parent="1">
          <mxGeometry x="100" y="60" width="80" height="50" as="geometry" />
        </mxCell>
        <mxCell id="9YNgSpSGx8CFK1LlIQPn-8" value="" style="endArrow=none;html=1;rounded=0;exitX=1;exitY=1;exitDx=0;exitDy=0;entryX=0.5;entryY=0;entryDx=0;entryDy=0;" edge="1" parent="1" source="9YNgSpSGx8CFK1LlIQPn-7" target="x5nza6nhUYz3lQZqO12N-1">
          <mxGeometry width="50" height="50" relative="1" as="geometry">
            <mxPoint x="220" y="120" as="sourcePoint" />
            <mxPoint x="270" y="70" as="targetPoint" />
          </mxGeometry>
        </mxCell>
        <mxCell id="9YNgSpSGx8CFK1LlIQPn-9" value="" style="endArrow=none;html=1;rounded=0;exitX=0.5;exitY=1;exitDx=0;exitDy=0;entryX=0.5;entryY=0;entryDx=0;entryDy=0;" edge="1" parent="1" source="9YNgSpSGx8CFK1LlIQPn-1" target="x5nza6nhUYz3lQZqO12N-1">
          <mxGeometry width="50" height="50" relative="1" as="geometry">
            <mxPoint x="210" y="120" as="sourcePoint" />
            <mxPoint x="260" y="70" as="targetPoint" />
          </mxGeometry>
        </mxCell>
        <mxCell id="9YNgSpSGx8CFK1LlIQPn-10" value="" style="endArrow=none;html=1;rounded=0;entryX=0.5;entryY=1;entryDx=0;entryDy=0;exitX=0.5;exitY=0;exitDx=0;exitDy=0;" edge="1" parent="1" source="x5nza6nhUYz3lQZqO12N-1" target="9YNgSpSGx8CFK1LlIQPn-2">
          <mxGeometry width="50" height="50" relative="1" as="geometry">
            <mxPoint x="240" y="150" as="sourcePoint" />
            <mxPoint x="290" y="100" as="targetPoint" />
          </mxGeometry>
        </mxCell>
        <mxCell id="9YNgSpSGx8CFK1LlIQPn-11" value="" style="endArrow=none;html=1;rounded=0;entryX=0;entryY=1;entryDx=0;entryDy=0;exitX=0.5;exitY=0;exitDx=0;exitDy=0;" edge="1" parent="1" source="x5nza6nhUYz3lQZqO12N-1" target="9YNgSpSGx8CFK1LlIQPn-3">
          <mxGeometry width="50" height="50" relative="1" as="geometry">
            <mxPoint x="240" y="130" as="sourcePoint" />
            <mxPoint x="290" y="80" as="targetPoint" />
          </mxGeometry>
        </mxCell>
        <mxCell id="9YNgSpSGx8CFK1LlIQPn-12" value="" style="endArrow=none;html=1;rounded=0;entryX=0;entryY=0.5;entryDx=0;entryDy=0;exitX=0.5;exitY=0;exitDx=0;exitDy=0;" edge="1" parent="1" source="x5nza6nhUYz3lQZqO12N-1" target="9YNgSpSGx8CFK1LlIQPn-5">
          <mxGeometry width="50" height="50" relative="1" as="geometry">
            <mxPoint x="210" y="300" as="sourcePoint" />
            <mxPoint x="260" y="250" as="targetPoint" />
          </mxGeometry>
        </mxCell>
        <mxCell id="9YNgSpSGx8CFK1LlIQPn-13" value="" style="endArrow=none;html=1;rounded=0;entryX=0;entryY=0.5;entryDx=0;entryDy=0;exitX=0.5;exitY=0;exitDx=0;exitDy=0;" edge="1" parent="1" source="x5nza6nhUYz3lQZqO12N-1" target="9YNgSpSGx8CFK1LlIQPn-6">
          <mxGeometry width="50" height="50" relative="1" as="geometry">
            <mxPoint x="190" y="290" as="sourcePoint" />
            <mxPoint x="240" y="240" as="targetPoint" />
          </mxGeometry>
        </mxCell>
        <mxCell id="9YNgSpSGx8CFK1LlIQPn-14" value="users" style="rounded=1;whiteSpace=wrap;html=1;" vertex="1" parent="1">
          <mxGeometry x="460" y="155" width="100" height="50" as="geometry" />
        </mxCell>
        <mxCell id="9YNgSpSGx8CFK1LlIQPn-15" value="id" style="ellipse;whiteSpace=wrap;html=1;" vertex="1" parent="1">
          <mxGeometry x="440" y="5" width="70" height="50" as="geometry" />
        </mxCell>
        <mxCell id="9YNgSpSGx8CFK1LlIQPn-16" value="name" style="ellipse;whiteSpace=wrap;html=1;" vertex="1" parent="1">
          <mxGeometry x="520" y="5" width="70" height="50" as="geometry" />
        </mxCell>
        <mxCell id="9YNgSpSGx8CFK1LlIQPn-17" value="email" style="ellipse;whiteSpace=wrap;html=1;" vertex="1" parent="1">
          <mxGeometry x="600" y="5" width="70" height="50" as="geometry" />
        </mxCell>
        <mxCell id="9YNgSpSGx8CFK1LlIQPn-18" value="password" style="ellipse;whiteSpace=wrap;html=1;" vertex="1" parent="1">
          <mxGeometry x="610" y="75" width="70" height="50" as="geometry" />
        </mxCell>
        <mxCell id="9YNgSpSGx8CFK1LlIQPn-19" value="role" style="ellipse;whiteSpace=wrap;html=1;" vertex="1" parent="1">
          <mxGeometry x="600" y="125" width="70" height="50" as="geometry" />
        </mxCell>
        <mxCell id="9YNgSpSGx8CFK1LlIQPn-22" value="" style="endArrow=none;html=1;rounded=0;exitX=0.5;exitY=1;exitDx=0;exitDy=0;entryX=0.5;entryY=0;entryDx=0;entryDy=0;" edge="1" parent="1" source="9YNgSpSGx8CFK1LlIQPn-15" target="9YNgSpSGx8CFK1LlIQPn-14">
          <mxGeometry width="50" height="50" relative="1" as="geometry">
            <mxPoint x="510" y="115" as="sourcePoint" />
            <mxPoint x="560" y="65" as="targetPoint" />
          </mxGeometry>
        </mxCell>
        <mxCell id="9YNgSpSGx8CFK1LlIQPn-23" value="" style="endArrow=none;html=1;rounded=0;entryX=0.5;entryY=1;entryDx=0;entryDy=0;exitX=0.5;exitY=0;exitDx=0;exitDy=0;" edge="1" parent="1" source="9YNgSpSGx8CFK1LlIQPn-14" target="9YNgSpSGx8CFK1LlIQPn-16">
          <mxGeometry width="50" height="50" relative="1" as="geometry">
            <mxPoint x="540" y="145" as="sourcePoint" />
            <mxPoint x="590" y="95" as="targetPoint" />
          </mxGeometry>
        </mxCell>
        <mxCell id="9YNgSpSGx8CFK1LlIQPn-24" value="" style="endArrow=none;html=1;rounded=0;entryX=0;entryY=1;entryDx=0;entryDy=0;exitX=0.5;exitY=0;exitDx=0;exitDy=0;" edge="1" parent="1" source="9YNgSpSGx8CFK1LlIQPn-14" target="9YNgSpSGx8CFK1LlIQPn-17">
          <mxGeometry width="50" height="50" relative="1" as="geometry">
            <mxPoint x="540" y="125" as="sourcePoint" />
            <mxPoint x="590" y="75" as="targetPoint" />
          </mxGeometry>
        </mxCell>
        <mxCell id="9YNgSpSGx8CFK1LlIQPn-25" value="" style="endArrow=none;html=1;rounded=0;entryX=0;entryY=0.5;entryDx=0;entryDy=0;exitX=0.5;exitY=0;exitDx=0;exitDy=0;" edge="1" parent="1" source="9YNgSpSGx8CFK1LlIQPn-14" target="9YNgSpSGx8CFK1LlIQPn-18">
          <mxGeometry width="50" height="50" relative="1" as="geometry">
            <mxPoint x="510" y="295" as="sourcePoint" />
            <mxPoint x="560" y="245" as="targetPoint" />
          </mxGeometry>
        </mxCell>
        <mxCell id="9YNgSpSGx8CFK1LlIQPn-26" value="" style="endArrow=none;html=1;rounded=0;entryX=0;entryY=0.5;entryDx=0;entryDy=0;exitX=0.5;exitY=0;exitDx=0;exitDy=0;" edge="1" parent="1" source="9YNgSpSGx8CFK1LlIQPn-14" target="9YNgSpSGx8CFK1LlIQPn-19">
          <mxGeometry width="50" height="50" relative="1" as="geometry">
            <mxPoint x="490" y="285" as="sourcePoint" />
            <mxPoint x="540" y="235" as="targetPoint" />
          </mxGeometry>
        </mxCell>
        <mxCell id="9YNgSpSGx8CFK1LlIQPn-27" value="user_details" style="rounded=1;whiteSpace=wrap;html=1;" vertex="1" parent="1">
          <mxGeometry x="470" y="380" width="100" height="50" as="geometry" />
        </mxCell>
        <mxCell id="9YNgSpSGx8CFK1LlIQPn-28" value="id" style="ellipse;whiteSpace=wrap;html=1;" vertex="1" parent="1">
          <mxGeometry x="450" y="230" width="70" height="50" as="geometry" />
        </mxCell>
        <mxCell id="9YNgSpSGx8CFK1LlIQPn-29" value="user_id" style="ellipse;whiteSpace=wrap;html=1;" vertex="1" parent="1">
          <mxGeometry x="530" y="230" width="70" height="50" as="geometry" />
        </mxCell>
        <mxCell id="9YNgSpSGx8CFK1LlIQPn-30" value="ktp" style="ellipse;whiteSpace=wrap;html=1;" vertex="1" parent="1">
          <mxGeometry x="610" y="230" width="70" height="50" as="geometry" />
        </mxCell>
        <mxCell id="9YNgSpSGx8CFK1LlIQPn-31" value="kk" style="ellipse;whiteSpace=wrap;html=1;" vertex="1" parent="1">
          <mxGeometry x="620" y="300" width="70" height="50" as="geometry" />
        </mxCell>
        <mxCell id="9YNgSpSGx8CFK1LlIQPn-33" value="" style="endArrow=none;html=1;rounded=0;exitX=0.5;exitY=1;exitDx=0;exitDy=0;entryX=0.5;entryY=0;entryDx=0;entryDy=0;" edge="1" parent="1" source="9YNgSpSGx8CFK1LlIQPn-28" target="9YNgSpSGx8CFK1LlIQPn-27">
          <mxGeometry width="50" height="50" relative="1" as="geometry">
            <mxPoint x="520" y="340" as="sourcePoint" />
            <mxPoint x="570" y="290" as="targetPoint" />
          </mxGeometry>
        </mxCell>
        <mxCell id="9YNgSpSGx8CFK1LlIQPn-34" value="" style="endArrow=none;html=1;rounded=0;entryX=0.5;entryY=1;entryDx=0;entryDy=0;exitX=0.5;exitY=0;exitDx=0;exitDy=0;" edge="1" parent="1" source="9YNgSpSGx8CFK1LlIQPn-27" target="9YNgSpSGx8CFK1LlIQPn-29">
          <mxGeometry width="50" height="50" relative="1" as="geometry">
            <mxPoint x="550" y="370" as="sourcePoint" />
            <mxPoint x="600" y="320" as="targetPoint" />
          </mxGeometry>
        </mxCell>
        <mxCell id="9YNgSpSGx8CFK1LlIQPn-35" value="" style="endArrow=none;html=1;rounded=0;entryX=0;entryY=1;entryDx=0;entryDy=0;exitX=0.5;exitY=0;exitDx=0;exitDy=0;" edge="1" parent="1" source="9YNgSpSGx8CFK1LlIQPn-27" target="9YNgSpSGx8CFK1LlIQPn-30">
          <mxGeometry width="50" height="50" relative="1" as="geometry">
            <mxPoint x="550" y="350" as="sourcePoint" />
            <mxPoint x="600" y="300" as="targetPoint" />
          </mxGeometry>
        </mxCell>
        <mxCell id="9YNgSpSGx8CFK1LlIQPn-36" value="" style="endArrow=none;html=1;rounded=0;entryX=0;entryY=0.5;entryDx=0;entryDy=0;exitX=0.5;exitY=0;exitDx=0;exitDy=0;" edge="1" parent="1" source="9YNgSpSGx8CFK1LlIQPn-27" target="9YNgSpSGx8CFK1LlIQPn-31">
          <mxGeometry width="50" height="50" relative="1" as="geometry">
            <mxPoint x="520" y="520" as="sourcePoint" />
            <mxPoint x="570" y="470" as="targetPoint" />
          </mxGeometry>
        </mxCell>
        <mxCell id="9YNgSpSGx8CFK1LlIQPn-38" value="products" style="rounded=1;whiteSpace=wrap;html=1;" vertex="1" parent="1">
          <mxGeometry x="170" y="380" width="100" height="50" as="geometry" />
        </mxCell>
        <mxCell id="9YNgSpSGx8CFK1LlIQPn-39" value="id" style="ellipse;whiteSpace=wrap;html=1;" vertex="1" parent="1">
          <mxGeometry x="150" y="230" width="70" height="50" as="geometry" />
        </mxCell>
        <mxCell id="9YNgSpSGx8CFK1LlIQPn-40" value="name" style="ellipse;whiteSpace=wrap;html=1;" vertex="1" parent="1">
          <mxGeometry x="230" y="230" width="70" height="50" as="geometry" />
        </mxCell>
        <mxCell id="9YNgSpSGx8CFK1LlIQPn-41" value="image" style="ellipse;whiteSpace=wrap;html=1;" vertex="1" parent="1">
          <mxGeometry x="310" y="230" width="70" height="50" as="geometry" />
        </mxCell>
        <mxCell id="9YNgSpSGx8CFK1LlIQPn-42" value="description" style="ellipse;whiteSpace=wrap;html=1;" vertex="1" parent="1">
          <mxGeometry x="320" y="300" width="70" height="50" as="geometry" />
        </mxCell>
        <mxCell id="9YNgSpSGx8CFK1LlIQPn-43" value="price" style="ellipse;whiteSpace=wrap;html=1;" vertex="1" parent="1">
          <mxGeometry x="310" y="350" width="70" height="50" as="geometry" />
        </mxCell>
        <mxCell id="9YNgSpSGx8CFK1LlIQPn-44" value="status" style="ellipse;whiteSpace=wrap;html=1;" vertex="1" parent="1">
          <mxGeometry x="110" y="280" width="80" height="50" as="geometry" />
        </mxCell>
        <mxCell id="9YNgSpSGx8CFK1LlIQPn-45" value="" style="endArrow=none;html=1;rounded=0;exitX=1;exitY=1;exitDx=0;exitDy=0;entryX=0.5;entryY=0;entryDx=0;entryDy=0;" edge="1" parent="1" source="9YNgSpSGx8CFK1LlIQPn-44" target="9YNgSpSGx8CFK1LlIQPn-38">
          <mxGeometry width="50" height="50" relative="1" as="geometry">
            <mxPoint x="230" y="340" as="sourcePoint" />
            <mxPoint x="280" y="290" as="targetPoint" />
          </mxGeometry>
        </mxCell>
        <mxCell id="9YNgSpSGx8CFK1LlIQPn-46" value="" style="endArrow=none;html=1;rounded=0;exitX=0.5;exitY=1;exitDx=0;exitDy=0;entryX=0.5;entryY=0;entryDx=0;entryDy=0;" edge="1" parent="1" source="9YNgSpSGx8CFK1LlIQPn-39" target="9YNgSpSGx8CFK1LlIQPn-38">
          <mxGeometry width="50" height="50" relative="1" as="geometry">
            <mxPoint x="220" y="340" as="sourcePoint" />
            <mxPoint x="270" y="290" as="targetPoint" />
          </mxGeometry>
        </mxCell>
        <mxCell id="9YNgSpSGx8CFK1LlIQPn-47" value="" style="endArrow=none;html=1;rounded=0;entryX=0.5;entryY=1;entryDx=0;entryDy=0;exitX=0.5;exitY=0;exitDx=0;exitDy=0;" edge="1" parent="1" source="9YNgSpSGx8CFK1LlIQPn-38" target="9YNgSpSGx8CFK1LlIQPn-40">
          <mxGeometry width="50" height="50" relative="1" as="geometry">
            <mxPoint x="250" y="370" as="sourcePoint" />
            <mxPoint x="300" y="320" as="targetPoint" />
          </mxGeometry>
        </mxCell>
        <mxCell id="9YNgSpSGx8CFK1LlIQPn-48" value="" style="endArrow=none;html=1;rounded=0;entryX=0;entryY=1;entryDx=0;entryDy=0;exitX=0.5;exitY=0;exitDx=0;exitDy=0;" edge="1" parent="1" source="9YNgSpSGx8CFK1LlIQPn-38" target="9YNgSpSGx8CFK1LlIQPn-41">
          <mxGeometry width="50" height="50" relative="1" as="geometry">
            <mxPoint x="250" y="350" as="sourcePoint" />
            <mxPoint x="300" y="300" as="targetPoint" />
          </mxGeometry>
        </mxCell>
        <mxCell id="9YNgSpSGx8CFK1LlIQPn-49" value="" style="endArrow=none;html=1;rounded=0;entryX=0;entryY=0.5;entryDx=0;entryDy=0;exitX=0.5;exitY=0;exitDx=0;exitDy=0;" edge="1" parent="1" source="9YNgSpSGx8CFK1LlIQPn-38" target="9YNgSpSGx8CFK1LlIQPn-42">
          <mxGeometry width="50" height="50" relative="1" as="geometry">
            <mxPoint x="220" y="520" as="sourcePoint" />
            <mxPoint x="270" y="470" as="targetPoint" />
          </mxGeometry>
        </mxCell>
        <mxCell id="9YNgSpSGx8CFK1LlIQPn-50" value="" style="endArrow=none;html=1;rounded=0;entryX=0;entryY=0.5;entryDx=0;entryDy=0;exitX=0.5;exitY=0;exitDx=0;exitDy=0;" edge="1" parent="1" source="9YNgSpSGx8CFK1LlIQPn-38" target="9YNgSpSGx8CFK1LlIQPn-43">
          <mxGeometry width="50" height="50" relative="1" as="geometry">
            <mxPoint x="200" y="510" as="sourcePoint" />
            <mxPoint x="250" y="460" as="targetPoint" />
          </mxGeometry>
        </mxCell>
        <mxCell id="9YNgSpSGx8CFK1LlIQPn-51" value="qty" style="ellipse;whiteSpace=wrap;html=1;" vertex="1" parent="1">
          <mxGeometry x="90" y="330" width="80" height="50" as="geometry" />
        </mxCell>
        <mxCell id="9YNgSpSGx8CFK1LlIQPn-52" value="" style="endArrow=none;html=1;rounded=0;entryX=0.5;entryY=0;entryDx=0;entryDy=0;exitX=1;exitY=0.5;exitDx=0;exitDy=0;" edge="1" parent="1" source="9YNgSpSGx8CFK1LlIQPn-51" target="9YNgSpSGx8CFK1LlIQPn-38">
          <mxGeometry width="50" height="50" relative="1" as="geometry">
            <mxPoint x="100" y="440" as="sourcePoint" />
            <mxPoint x="150" y="390" as="targetPoint" />
          </mxGeometry>
        </mxCell>
        <mxCell id="9YNgSpSGx8CFK1LlIQPn-53" value="types" style="rounded=1;whiteSpace=wrap;html=1;" vertex="1" parent="1">
          <mxGeometry x="160" y="620" width="100" height="50" as="geometry" />
        </mxCell>
        <mxCell id="9YNgSpSGx8CFK1LlIQPn-54" value="id" style="ellipse;whiteSpace=wrap;html=1;" vertex="1" parent="1">
          <mxGeometry x="140" y="470" width="70" height="50" as="geometry" />
        </mxCell>
        <mxCell id="9YNgSpSGx8CFK1LlIQPn-55" value="product_id" style="ellipse;whiteSpace=wrap;html=1;" vertex="1" parent="1">
          <mxGeometry x="220" y="470" width="70" height="50" as="geometry" />
        </mxCell>
        <mxCell id="9YNgSpSGx8CFK1LlIQPn-56" value="name" style="ellipse;whiteSpace=wrap;html=1;" vertex="1" parent="1">
          <mxGeometry x="300" y="470" width="70" height="50" as="geometry" />
        </mxCell>
        <mxCell id="9YNgSpSGx8CFK1LlIQPn-57" value="color" style="ellipse;whiteSpace=wrap;html=1;" vertex="1" parent="1">
          <mxGeometry x="310" y="540" width="70" height="50" as="geometry" />
        </mxCell>
        <mxCell id="9YNgSpSGx8CFK1LlIQPn-58" value="" style="endArrow=none;html=1;rounded=0;exitX=0.5;exitY=1;exitDx=0;exitDy=0;entryX=0.5;entryY=0;entryDx=0;entryDy=0;" edge="1" parent="1" source="9YNgSpSGx8CFK1LlIQPn-54" target="9YNgSpSGx8CFK1LlIQPn-53">
          <mxGeometry width="50" height="50" relative="1" as="geometry">
            <mxPoint x="210" y="580" as="sourcePoint" />
            <mxPoint x="260" y="530" as="targetPoint" />
          </mxGeometry>
        </mxCell>
        <mxCell id="9YNgSpSGx8CFK1LlIQPn-59" value="" style="endArrow=none;html=1;rounded=0;entryX=0.5;entryY=1;entryDx=0;entryDy=0;exitX=0.5;exitY=0;exitDx=0;exitDy=0;" edge="1" parent="1" source="9YNgSpSGx8CFK1LlIQPn-53" target="9YNgSpSGx8CFK1LlIQPn-55">
          <mxGeometry width="50" height="50" relative="1" as="geometry">
            <mxPoint x="240" y="610" as="sourcePoint" />
            <mxPoint x="290" y="560" as="targetPoint" />
          </mxGeometry>
        </mxCell>
        <mxCell id="9YNgSpSGx8CFK1LlIQPn-60" value="" style="endArrow=none;html=1;rounded=0;entryX=0;entryY=1;entryDx=0;entryDy=0;exitX=0.5;exitY=0;exitDx=0;exitDy=0;" edge="1" parent="1" source="9YNgSpSGx8CFK1LlIQPn-53" target="9YNgSpSGx8CFK1LlIQPn-56">
          <mxGeometry width="50" height="50" relative="1" as="geometry">
            <mxPoint x="240" y="590" as="sourcePoint" />
            <mxPoint x="290" y="540" as="targetPoint" />
          </mxGeometry>
        </mxCell>
        <mxCell id="9YNgSpSGx8CFK1LlIQPn-61" value="" style="endArrow=none;html=1;rounded=0;entryX=0;entryY=0.5;entryDx=0;entryDy=0;exitX=0.5;exitY=0;exitDx=0;exitDy=0;" edge="1" parent="1" source="9YNgSpSGx8CFK1LlIQPn-53" target="9YNgSpSGx8CFK1LlIQPn-57">
          <mxGeometry width="50" height="50" relative="1" as="geometry">
            <mxPoint x="210" y="760" as="sourcePoint" />
            <mxPoint x="260" y="710" as="targetPoint" />
          </mxGeometry>
        </mxCell>
        <mxCell id="9YNgSpSGx8CFK1LlIQPn-62" value="transactions" style="rounded=1;whiteSpace=wrap;html=1;" vertex="1" parent="1">
          <mxGeometry x="495" y="610" width="100" height="50" as="geometry" />
        </mxCell>
        <mxCell id="9YNgSpSGx8CFK1LlIQPn-63" value="id" style="ellipse;whiteSpace=wrap;html=1;" vertex="1" parent="1">
          <mxGeometry x="475" y="460" width="70" height="50" as="geometry" />
        </mxCell>
        <mxCell id="9YNgSpSGx8CFK1LlIQPn-64" value="code" style="ellipse;whiteSpace=wrap;html=1;" vertex="1" parent="1">
          <mxGeometry x="555" y="460" width="70" height="50" as="geometry" />
        </mxCell>
        <mxCell id="9YNgSpSGx8CFK1LlIQPn-65" value="total_price" style="ellipse;whiteSpace=wrap;html=1;" vertex="1" parent="1">
          <mxGeometry x="635" y="460" width="70" height="50" as="geometry" />
        </mxCell>
        <mxCell id="9YNgSpSGx8CFK1LlIQPn-66" value="received" style="ellipse;whiteSpace=wrap;html=1;" vertex="1" parent="1">
          <mxGeometry x="645" y="530" width="70" height="50" as="geometry" />
        </mxCell>
        <mxCell id="9YNgSpSGx8CFK1LlIQPn-67" value="change_received" style="ellipse;whiteSpace=wrap;html=1;" vertex="1" parent="1">
          <mxGeometry x="635" y="580" width="95" height="60" as="geometry" />
        </mxCell>
        <mxCell id="9YNgSpSGx8CFK1LlIQPn-68" value="transaction_type" style="ellipse;whiteSpace=wrap;html=1;" vertex="1" parent="1">
          <mxGeometry x="420" y="500" width="95" height="60" as="geometry" />
        </mxCell>
        <mxCell id="9YNgSpSGx8CFK1LlIQPn-69" value="" style="endArrow=none;html=1;rounded=0;exitX=1;exitY=1;exitDx=0;exitDy=0;entryX=0.5;entryY=0;entryDx=0;entryDy=0;" edge="1" parent="1" source="9YNgSpSGx8CFK1LlIQPn-68" target="9YNgSpSGx8CFK1LlIQPn-62">
          <mxGeometry width="50" height="50" relative="1" as="geometry">
            <mxPoint x="555" y="570" as="sourcePoint" />
            <mxPoint x="605" y="520" as="targetPoint" />
          </mxGeometry>
        </mxCell>
        <mxCell id="9YNgSpSGx8CFK1LlIQPn-70" value="" style="endArrow=none;html=1;rounded=0;exitX=0.5;exitY=1;exitDx=0;exitDy=0;entryX=0.5;entryY=0;entryDx=0;entryDy=0;" edge="1" parent="1" source="9YNgSpSGx8CFK1LlIQPn-63" target="9YNgSpSGx8CFK1LlIQPn-62">
          <mxGeometry width="50" height="50" relative="1" as="geometry">
            <mxPoint x="545" y="570" as="sourcePoint" />
            <mxPoint x="595" y="520" as="targetPoint" />
          </mxGeometry>
        </mxCell>
        <mxCell id="9YNgSpSGx8CFK1LlIQPn-71" value="" style="endArrow=none;html=1;rounded=0;entryX=0.5;entryY=1;entryDx=0;entryDy=0;exitX=0.5;exitY=0;exitDx=0;exitDy=0;" edge="1" parent="1" source="9YNgSpSGx8CFK1LlIQPn-62" target="9YNgSpSGx8CFK1LlIQPn-64">
          <mxGeometry width="50" height="50" relative="1" as="geometry">
            <mxPoint x="575" y="600" as="sourcePoint" />
            <mxPoint x="625" y="550" as="targetPoint" />
          </mxGeometry>
        </mxCell>
        <mxCell id="9YNgSpSGx8CFK1LlIQPn-72" value="" style="endArrow=none;html=1;rounded=0;entryX=0;entryY=1;entryDx=0;entryDy=0;exitX=0.5;exitY=0;exitDx=0;exitDy=0;" edge="1" parent="1" source="9YNgSpSGx8CFK1LlIQPn-62" target="9YNgSpSGx8CFK1LlIQPn-65">
          <mxGeometry width="50" height="50" relative="1" as="geometry">
            <mxPoint x="575" y="580" as="sourcePoint" />
            <mxPoint x="625" y="530" as="targetPoint" />
          </mxGeometry>
        </mxCell>
        <mxCell id="9YNgSpSGx8CFK1LlIQPn-73" value="" style="endArrow=none;html=1;rounded=0;entryX=0;entryY=0.5;entryDx=0;entryDy=0;exitX=0.5;exitY=0;exitDx=0;exitDy=0;" edge="1" parent="1" source="9YNgSpSGx8CFK1LlIQPn-62" target="9YNgSpSGx8CFK1LlIQPn-66">
          <mxGeometry width="50" height="50" relative="1" as="geometry">
            <mxPoint x="545" y="750" as="sourcePoint" />
            <mxPoint x="595" y="700" as="targetPoint" />
          </mxGeometry>
        </mxCell>
        <mxCell id="9YNgSpSGx8CFK1LlIQPn-74" value="" style="endArrow=none;html=1;rounded=0;entryX=0;entryY=0.5;entryDx=0;entryDy=0;exitX=0.5;exitY=0;exitDx=0;exitDy=0;" edge="1" parent="1" source="9YNgSpSGx8CFK1LlIQPn-62" target="9YNgSpSGx8CFK1LlIQPn-67">
          <mxGeometry width="50" height="50" relative="1" as="geometry">
            <mxPoint x="525" y="740" as="sourcePoint" />
            <mxPoint x="575" y="690" as="targetPoint" />
          </mxGeometry>
        </mxCell>
      </root>
    </mxGraphModel>
  </diagram>
  <diagram id="5tYbLjddkTVMlx76hZVW" name="LRS">
    <mxGraphModel dx="1764" dy="1080" grid="1" gridSize="10" guides="1" tooltips="1" connect="1" arrows="1" fold="1" page="1" pageScale="1" pageWidth="827" pageHeight="1169" math="0" shadow="0">
      <root>
        <mxCell id="0" />
        <mxCell id="1" parent="0" />
        <mxCell id="zOJS2oTmWjnNOZHCUmqk-71" value="orders" style="swimlane;fontStyle=0;childLayout=stackLayout;horizontal=1;startSize=30;horizontalStack=0;resizeParent=1;resizeParentMax=0;resizeLast=0;collapsible=1;marginBottom=0;whiteSpace=wrap;html=1;" vertex="1" parent="1">
          <mxGeometry x="109" y="100" width="140" height="210" as="geometry" />
        </mxCell>
        <mxCell id="zOJS2oTmWjnNOZHCUmqk-72" value="id" style="text;strokeColor=none;fillColor=none;align=left;verticalAlign=middle;spacingLeft=4;spacingRight=4;overflow=hidden;points=[[0,0.5],[1,0.5]];portConstraint=eastwest;rotatable=0;whiteSpace=wrap;html=1;" vertex="1" parent="zOJS2oTmWjnNOZHCUmqk-71">
          <mxGeometry y="30" width="140" height="30" as="geometry" />
        </mxCell>
        <mxCell id="zOJS2oTmWjnNOZHCUmqk-73" value="product_id" style="text;strokeColor=none;fillColor=none;align=left;verticalAlign=middle;spacingLeft=4;spacingRight=4;overflow=hidden;points=[[0,0.5],[1,0.5]];portConstraint=eastwest;rotatable=0;whiteSpace=wrap;html=1;" vertex="1" parent="zOJS2oTmWjnNOZHCUmqk-71">
          <mxGeometry y="60" width="140" height="30" as="geometry" />
        </mxCell>
        <mxCell id="zOJS2oTmWjnNOZHCUmqk-74" value="type_id" style="text;strokeColor=none;fillColor=none;align=left;verticalAlign=middle;spacingLeft=4;spacingRight=4;overflow=hidden;points=[[0,0.5],[1,0.5]];portConstraint=eastwest;rotatable=0;whiteSpace=wrap;html=1;" vertex="1" parent="zOJS2oTmWjnNOZHCUmqk-71">
          <mxGeometry y="90" width="140" height="30" as="geometry" />
        </mxCell>
        <mxCell id="zOJS2oTmWjnNOZHCUmqk-77" value="qty" style="text;strokeColor=none;fillColor=none;align=left;verticalAlign=middle;spacingLeft=4;spacingRight=4;overflow=hidden;points=[[0,0.5],[1,0.5]];portConstraint=eastwest;rotatable=0;whiteSpace=wrap;html=1;" vertex="1" parent="zOJS2oTmWjnNOZHCUmqk-71">
          <mxGeometry y="120" width="140" height="30" as="geometry" />
        </mxCell>
        <mxCell id="zOJS2oTmWjnNOZHCUmqk-76" value="price" style="text;strokeColor=none;fillColor=none;align=left;verticalAlign=middle;spacingLeft=4;spacingRight=4;overflow=hidden;points=[[0,0.5],[1,0.5]];portConstraint=eastwest;rotatable=0;whiteSpace=wrap;html=1;" vertex="1" parent="zOJS2oTmWjnNOZHCUmqk-71">
          <mxGeometry y="150" width="140" height="30" as="geometry" />
        </mxCell>
        <mxCell id="zOJS2oTmWjnNOZHCUmqk-75" value="transaction_id" style="text;strokeColor=none;fillColor=none;align=left;verticalAlign=middle;spacingLeft=4;spacingRight=4;overflow=hidden;points=[[0,0.5],[1,0.5]];portConstraint=eastwest;rotatable=0;whiteSpace=wrap;html=1;" vertex="1" parent="zOJS2oTmWjnNOZHCUmqk-71">
          <mxGeometry y="180" width="140" height="30" as="geometry" />
        </mxCell>
        <mxCell id="zOJS2oTmWjnNOZHCUmqk-78" value="users" style="swimlane;fontStyle=0;childLayout=stackLayout;horizontal=1;startSize=30;horizontalStack=0;resizeParent=1;resizeParentMax=0;resizeLast=0;collapsible=1;marginBottom=0;whiteSpace=wrap;html=1;" vertex="1" parent="1">
          <mxGeometry x="324" y="100" width="140" height="180" as="geometry" />
        </mxCell>
        <mxCell id="zOJS2oTmWjnNOZHCUmqk-79" value="id" style="text;strokeColor=none;fillColor=none;align=left;verticalAlign=middle;spacingLeft=4;spacingRight=4;overflow=hidden;points=[[0,0.5],[1,0.5]];portConstraint=eastwest;rotatable=0;whiteSpace=wrap;html=1;" vertex="1" parent="zOJS2oTmWjnNOZHCUmqk-78">
          <mxGeometry y="30" width="140" height="30" as="geometry" />
        </mxCell>
        <mxCell id="zOJS2oTmWjnNOZHCUmqk-80" value="name" style="text;strokeColor=none;fillColor=none;align=left;verticalAlign=middle;spacingLeft=4;spacingRight=4;overflow=hidden;points=[[0,0.5],[1,0.5]];portConstraint=eastwest;rotatable=0;whiteSpace=wrap;html=1;" vertex="1" parent="zOJS2oTmWjnNOZHCUmqk-78">
          <mxGeometry y="60" width="140" height="30" as="geometry" />
        </mxCell>
        <mxCell id="zOJS2oTmWjnNOZHCUmqk-81" value="email" style="text;strokeColor=none;fillColor=none;align=left;verticalAlign=middle;spacingLeft=4;spacingRight=4;overflow=hidden;points=[[0,0.5],[1,0.5]];portConstraint=eastwest;rotatable=0;whiteSpace=wrap;html=1;" vertex="1" parent="zOJS2oTmWjnNOZHCUmqk-78">
          <mxGeometry y="90" width="140" height="30" as="geometry" />
        </mxCell>
        <mxCell id="zOJS2oTmWjnNOZHCUmqk-82" value="password" style="text;strokeColor=none;fillColor=none;align=left;verticalAlign=middle;spacingLeft=4;spacingRight=4;overflow=hidden;points=[[0,0.5],[1,0.5]];portConstraint=eastwest;rotatable=0;whiteSpace=wrap;html=1;" vertex="1" parent="zOJS2oTmWjnNOZHCUmqk-78">
          <mxGeometry y="120" width="140" height="30" as="geometry" />
        </mxCell>
        <mxCell id="zOJS2oTmWjnNOZHCUmqk-83" value="role" style="text;strokeColor=none;fillColor=none;align=left;verticalAlign=middle;spacingLeft=4;spacingRight=4;overflow=hidden;points=[[0,0.5],[1,0.5]];portConstraint=eastwest;rotatable=0;whiteSpace=wrap;html=1;" vertex="1" parent="zOJS2oTmWjnNOZHCUmqk-78">
          <mxGeometry y="150" width="140" height="30" as="geometry" />
        </mxCell>
        <mxCell id="zOJS2oTmWjnNOZHCUmqk-85" value="user_details" style="swimlane;fontStyle=0;childLayout=stackLayout;horizontal=1;startSize=30;horizontalStack=0;resizeParent=1;resizeParentMax=0;resizeLast=0;collapsible=1;marginBottom=0;whiteSpace=wrap;html=1;" vertex="1" parent="1">
          <mxGeometry x="534" y="100" width="140" height="150" as="geometry" />
        </mxCell>
        <mxCell id="zOJS2oTmWjnNOZHCUmqk-86" value="id" style="text;strokeColor=none;fillColor=none;align=left;verticalAlign=middle;spacingLeft=4;spacingRight=4;overflow=hidden;points=[[0,0.5],[1,0.5]];portConstraint=eastwest;rotatable=0;whiteSpace=wrap;html=1;" vertex="1" parent="zOJS2oTmWjnNOZHCUmqk-85">
          <mxGeometry y="30" width="140" height="30" as="geometry" />
        </mxCell>
        <mxCell id="zOJS2oTmWjnNOZHCUmqk-87" value="user_id" style="text;strokeColor=none;fillColor=none;align=left;verticalAlign=middle;spacingLeft=4;spacingRight=4;overflow=hidden;points=[[0,0.5],[1,0.5]];portConstraint=eastwest;rotatable=0;whiteSpace=wrap;html=1;" vertex="1" parent="zOJS2oTmWjnNOZHCUmqk-85">
          <mxGeometry y="60" width="140" height="30" as="geometry" />
        </mxCell>
        <mxCell id="zOJS2oTmWjnNOZHCUmqk-88" value="ktp" style="text;strokeColor=none;fillColor=none;align=left;verticalAlign=middle;spacingLeft=4;spacingRight=4;overflow=hidden;points=[[0,0.5],[1,0.5]];portConstraint=eastwest;rotatable=0;whiteSpace=wrap;html=1;" vertex="1" parent="zOJS2oTmWjnNOZHCUmqk-85">
          <mxGeometry y="90" width="140" height="30" as="geometry" />
        </mxCell>
        <mxCell id="zOJS2oTmWjnNOZHCUmqk-89" value="kk" style="text;strokeColor=none;fillColor=none;align=left;verticalAlign=middle;spacingLeft=4;spacingRight=4;overflow=hidden;points=[[0,0.5],[1,0.5]];portConstraint=eastwest;rotatable=0;whiteSpace=wrap;html=1;" vertex="1" parent="zOJS2oTmWjnNOZHCUmqk-85">
          <mxGeometry y="120" width="140" height="30" as="geometry" />
        </mxCell>
        <mxCell id="zOJS2oTmWjnNOZHCUmqk-91" value="products" style="swimlane;fontStyle=0;childLayout=stackLayout;horizontal=1;startSize=30;horizontalStack=0;resizeParent=1;resizeParentMax=0;resizeLast=0;collapsible=1;marginBottom=0;whiteSpace=wrap;html=1;" vertex="1" parent="1">
          <mxGeometry x="109" y="360" width="140" height="240" as="geometry" />
        </mxCell>
        <mxCell id="zOJS2oTmWjnNOZHCUmqk-92" value="id" style="text;strokeColor=none;fillColor=none;align=left;verticalAlign=middle;spacingLeft=4;spacingRight=4;overflow=hidden;points=[[0,0.5],[1,0.5]];portConstraint=eastwest;rotatable=0;whiteSpace=wrap;html=1;" vertex="1" parent="zOJS2oTmWjnNOZHCUmqk-91">
          <mxGeometry y="30" width="140" height="30" as="geometry" />
        </mxCell>
        <mxCell id="zOJS2oTmWjnNOZHCUmqk-93" value="name" style="text;strokeColor=none;fillColor=none;align=left;verticalAlign=middle;spacingLeft=4;spacingRight=4;overflow=hidden;points=[[0,0.5],[1,0.5]];portConstraint=eastwest;rotatable=0;whiteSpace=wrap;html=1;" vertex="1" parent="zOJS2oTmWjnNOZHCUmqk-91">
          <mxGeometry y="60" width="140" height="30" as="geometry" />
        </mxCell>
        <mxCell id="zOJS2oTmWjnNOZHCUmqk-94" value="image" style="text;strokeColor=none;fillColor=none;align=left;verticalAlign=middle;spacingLeft=4;spacingRight=4;overflow=hidden;points=[[0,0.5],[1,0.5]];portConstraint=eastwest;rotatable=0;whiteSpace=wrap;html=1;" vertex="1" parent="zOJS2oTmWjnNOZHCUmqk-91">
          <mxGeometry y="90" width="140" height="30" as="geometry" />
        </mxCell>
        <mxCell id="zOJS2oTmWjnNOZHCUmqk-95" value="description" style="text;strokeColor=none;fillColor=none;align=left;verticalAlign=middle;spacingLeft=4;spacingRight=4;overflow=hidden;points=[[0,0.5],[1,0.5]];portConstraint=eastwest;rotatable=0;whiteSpace=wrap;html=1;" vertex="1" parent="zOJS2oTmWjnNOZHCUmqk-91">
          <mxGeometry y="120" width="140" height="30" as="geometry" />
        </mxCell>
        <mxCell id="zOJS2oTmWjnNOZHCUmqk-96" value="price" style="text;strokeColor=none;fillColor=none;align=left;verticalAlign=middle;spacingLeft=4;spacingRight=4;overflow=hidden;points=[[0,0.5],[1,0.5]];portConstraint=eastwest;rotatable=0;whiteSpace=wrap;html=1;" vertex="1" parent="zOJS2oTmWjnNOZHCUmqk-91">
          <mxGeometry y="150" width="140" height="30" as="geometry" />
        </mxCell>
        <mxCell id="zOJS2oTmWjnNOZHCUmqk-97" value="status" style="text;strokeColor=none;fillColor=none;align=left;verticalAlign=middle;spacingLeft=4;spacingRight=4;overflow=hidden;points=[[0,0.5],[1,0.5]];portConstraint=eastwest;rotatable=0;whiteSpace=wrap;html=1;" vertex="1" parent="zOJS2oTmWjnNOZHCUmqk-91">
          <mxGeometry y="180" width="140" height="30" as="geometry" />
        </mxCell>
        <mxCell id="zOJS2oTmWjnNOZHCUmqk-98" value="qty" style="text;strokeColor=none;fillColor=none;align=left;verticalAlign=middle;spacingLeft=4;spacingRight=4;overflow=hidden;points=[[0,0.5],[1,0.5]];portConstraint=eastwest;rotatable=0;whiteSpace=wrap;html=1;" vertex="1" parent="zOJS2oTmWjnNOZHCUmqk-91">
          <mxGeometry y="210" width="140" height="30" as="geometry" />
        </mxCell>
        <mxCell id="zOJS2oTmWjnNOZHCUmqk-99" value="types" style="swimlane;fontStyle=0;childLayout=stackLayout;horizontal=1;startSize=30;horizontalStack=0;resizeParent=1;resizeParentMax=0;resizeLast=0;collapsible=1;marginBottom=0;whiteSpace=wrap;html=1;" vertex="1" parent="1">
          <mxGeometry x="324" y="360" width="140" height="150" as="geometry" />
        </mxCell>
        <mxCell id="zOJS2oTmWjnNOZHCUmqk-100" value="id" style="text;strokeColor=none;fillColor=none;align=left;verticalAlign=middle;spacingLeft=4;spacingRight=4;overflow=hidden;points=[[0,0.5],[1,0.5]];portConstraint=eastwest;rotatable=0;whiteSpace=wrap;html=1;" vertex="1" parent="zOJS2oTmWjnNOZHCUmqk-99">
          <mxGeometry y="30" width="140" height="30" as="geometry" />
        </mxCell>
        <mxCell id="zOJS2oTmWjnNOZHCUmqk-101" value="product_id" style="text;strokeColor=none;fillColor=none;align=left;verticalAlign=middle;spacingLeft=4;spacingRight=4;overflow=hidden;points=[[0,0.5],[1,0.5]];portConstraint=eastwest;rotatable=0;whiteSpace=wrap;html=1;" vertex="1" parent="zOJS2oTmWjnNOZHCUmqk-99">
          <mxGeometry y="60" width="140" height="30" as="geometry" />
        </mxCell>
        <mxCell id="zOJS2oTmWjnNOZHCUmqk-102" value="name" style="text;strokeColor=none;fillColor=none;align=left;verticalAlign=middle;spacingLeft=4;spacingRight=4;overflow=hidden;points=[[0,0.5],[1,0.5]];portConstraint=eastwest;rotatable=0;whiteSpace=wrap;html=1;" vertex="1" parent="zOJS2oTmWjnNOZHCUmqk-99">
          <mxGeometry y="90" width="140" height="30" as="geometry" />
        </mxCell>
        <mxCell id="zOJS2oTmWjnNOZHCUmqk-103" value="color" style="text;strokeColor=none;fillColor=none;align=left;verticalAlign=middle;spacingLeft=4;spacingRight=4;overflow=hidden;points=[[0,0.5],[1,0.5]];portConstraint=eastwest;rotatable=0;whiteSpace=wrap;html=1;" vertex="1" parent="zOJS2oTmWjnNOZHCUmqk-99">
          <mxGeometry y="120" width="140" height="30" as="geometry" />
        </mxCell>
        <mxCell id="zOJS2oTmWjnNOZHCUmqk-107" value="transactions" style="swimlane;fontStyle=0;childLayout=stackLayout;horizontal=1;startSize=30;horizontalStack=0;resizeParent=1;resizeParentMax=0;resizeLast=0;collapsible=1;marginBottom=0;whiteSpace=wrap;html=1;" vertex="1" parent="1">
          <mxGeometry x="539" y="360" width="140" height="210" as="geometry" />
        </mxCell>
        <mxCell id="zOJS2oTmWjnNOZHCUmqk-108" value="id" style="text;strokeColor=none;fillColor=none;align=left;verticalAlign=middle;spacingLeft=4;spacingRight=4;overflow=hidden;points=[[0,0.5],[1,0.5]];portConstraint=eastwest;rotatable=0;whiteSpace=wrap;html=1;" vertex="1" parent="zOJS2oTmWjnNOZHCUmqk-107">
          <mxGeometry y="30" width="140" height="30" as="geometry" />
        </mxCell>
        <mxCell id="zOJS2oTmWjnNOZHCUmqk-109" value="code" style="text;strokeColor=none;fillColor=none;align=left;verticalAlign=middle;spacingLeft=4;spacingRight=4;overflow=hidden;points=[[0,0.5],[1,0.5]];portConstraint=eastwest;rotatable=0;whiteSpace=wrap;html=1;" vertex="1" parent="zOJS2oTmWjnNOZHCUmqk-107">
          <mxGeometry y="60" width="140" height="30" as="geometry" />
        </mxCell>
        <mxCell id="zOJS2oTmWjnNOZHCUmqk-110" value="total_price" style="text;strokeColor=none;fillColor=none;align=left;verticalAlign=middle;spacingLeft=4;spacingRight=4;overflow=hidden;points=[[0,0.5],[1,0.5]];portConstraint=eastwest;rotatable=0;whiteSpace=wrap;html=1;" vertex="1" parent="zOJS2oTmWjnNOZHCUmqk-107">
          <mxGeometry y="90" width="140" height="30" as="geometry" />
        </mxCell>
        <mxCell id="zOJS2oTmWjnNOZHCUmqk-111" value="received" style="text;strokeColor=none;fillColor=none;align=left;verticalAlign=middle;spacingLeft=4;spacingRight=4;overflow=hidden;points=[[0,0.5],[1,0.5]];portConstraint=eastwest;rotatable=0;whiteSpace=wrap;html=1;" vertex="1" parent="zOJS2oTmWjnNOZHCUmqk-107">
          <mxGeometry y="120" width="140" height="30" as="geometry" />
        </mxCell>
        <mxCell id="zOJS2oTmWjnNOZHCUmqk-112" value="change_received" style="text;strokeColor=none;fillColor=none;align=left;verticalAlign=middle;spacingLeft=4;spacingRight=4;overflow=hidden;points=[[0,0.5],[1,0.5]];portConstraint=eastwest;rotatable=0;whiteSpace=wrap;html=1;" vertex="1" parent="zOJS2oTmWjnNOZHCUmqk-107">
          <mxGeometry y="150" width="140" height="30" as="geometry" />
        </mxCell>
        <mxCell id="zOJS2oTmWjnNOZHCUmqk-114" value="transaction_type" style="text;strokeColor=none;fillColor=none;align=left;verticalAlign=middle;spacingLeft=4;spacingRight=4;overflow=hidden;points=[[0,0.5],[1,0.5]];portConstraint=eastwest;rotatable=0;whiteSpace=wrap;html=1;" vertex="1" parent="zOJS2oTmWjnNOZHCUmqk-107">
          <mxGeometry y="180" width="140" height="30" as="geometry" />
        </mxCell>
        <mxCell id="zOJS2oTmWjnNOZHCUmqk-115" value="" style="endArrow=classic;html=1;rounded=0;exitX=1;exitY=0.302;exitDx=0;exitDy=0;entryX=1;entryY=0.5;entryDx=0;entryDy=0;exitPerimeter=0;" edge="1" parent="1" source="zOJS2oTmWjnNOZHCUmqk-87" target="zOJS2oTmWjnNOZHCUmqk-79">
          <mxGeometry width="50" height="50" relative="1" as="geometry">
            <mxPoint x="709" y="190" as="sourcePoint" />
            <mxPoint x="759" y="140" as="targetPoint" />
            <Array as="points">
              <mxPoint x="719" y="169" />
              <mxPoint x="719" y="60" />
              <mxPoint x="499" y="60" />
              <mxPoint x="499" y="145" />
            </Array>
          </mxGeometry>
        </mxCell>
        <mxCell id="zOJS2oTmWjnNOZHCUmqk-116" value="" style="endArrow=classic;html=1;rounded=0;exitX=1;exitY=0.5;exitDx=0;exitDy=0;entryX=1;entryY=0.5;entryDx=0;entryDy=0;" edge="1" parent="1" source="zOJS2oTmWjnNOZHCUmqk-73" target="zOJS2oTmWjnNOZHCUmqk-92">
          <mxGeometry width="50" height="50" relative="1" as="geometry">
            <mxPoint x="269" y="350" as="sourcePoint" />
            <mxPoint x="319" y="300" as="targetPoint" />
            <Array as="points">
              <mxPoint x="279" y="175" />
              <mxPoint x="279" y="405" />
            </Array>
          </mxGeometry>
        </mxCell>
        <mxCell id="zOJS2oTmWjnNOZHCUmqk-117" value="" style="endArrow=classic;html=1;rounded=0;exitX=1;exitY=0.5;exitDx=0;exitDy=0;entryX=1;entryY=0.5;entryDx=0;entryDy=0;" edge="1" parent="1" source="zOJS2oTmWjnNOZHCUmqk-101" target="zOJS2oTmWjnNOZHCUmqk-92">
          <mxGeometry width="50" height="50" relative="1" as="geometry">
            <mxPoint x="489" y="370" as="sourcePoint" />
            <mxPoint x="539" y="320" as="targetPoint" />
            <Array as="points">
              <mxPoint x="499" y="435" />
              <mxPoint x="499" y="320" />
              <mxPoint x="279" y="320" />
              <mxPoint x="279" y="405" />
            </Array>
          </mxGeometry>
        </mxCell>
        <mxCell id="zOJS2oTmWjnNOZHCUmqk-120" value="" style="endArrow=classic;html=1;rounded=0;exitX=1;exitY=0.5;exitDx=0;exitDy=0;entryX=1;entryY=0.5;entryDx=0;entryDy=0;" edge="1" parent="1" source="zOJS2oTmWjnNOZHCUmqk-108" target="zOJS2oTmWjnNOZHCUmqk-75">
          <mxGeometry width="50" height="50" relative="1" as="geometry">
            <mxPoint x="669" y="370" as="sourcePoint" />
            <mxPoint x="719" y="320" as="targetPoint" />
            <Array as="points">
              <mxPoint x="719" y="405" />
              <mxPoint x="719" y="295" />
            </Array>
          </mxGeometry>
        </mxCell>
        <mxCell id="zOJS2oTmWjnNOZHCUmqk-121" value="" style="endArrow=classic;html=1;rounded=0;exitX=1;exitY=0.5;exitDx=0;exitDy=0;entryX=1;entryY=0.5;entryDx=0;entryDy=0;" edge="1" parent="1" source="zOJS2oTmWjnNOZHCUmqk-74" target="zOJS2oTmWjnNOZHCUmqk-100">
          <mxGeometry width="50" height="50" relative="1" as="geometry">
            <mxPoint x="269" y="160" as="sourcePoint" />
            <mxPoint x="319" y="110" as="targetPoint" />
            <Array as="points">
              <mxPoint x="279" y="205" />
              <mxPoint x="279" y="330" />
              <mxPoint x="489" y="330" />
              <mxPoint x="489" y="405" />
            </Array>
          </mxGeometry>
        </mxCell>
      </root>
    </mxGraphModel>
  </diagram>
</mxfile>
